<svg width="1920" height="1080" viewBox="0 0 1920 1080" fill="none" xmlns="http://www.w3.org/2000/svg">
<path d="M1920 0.000976562H0V1080H1920V0.000976562Z" fill="white"/>
<path fill-rule="evenodd" clip-rule="evenodd" d="M2.34375e-05 1017.11C25.65 1035.5 48.375 1056.43 71.168 1080H15.893C10.664 1075.6 5.36202 1071.25 2.34375e-05 1066.98V1017.11ZM2.34375e-05 0.000976562H41.257C46.207 2.43098 50.393 4.58698 53.257 5.84198C143.513 45.68 434.1 158.28 436.401 225.206C438.698 290.444 248.625 349.53 406.357 375.485C580.538 404.108 754.524 309.97 882.907 256.177C1002.16 206.621 1050.68 228.812 1082.26 306.949C1121.77 404.733 1087.62 458.567 1212.8 547.288C1355.27 648.29 1513.7 687.772 1737.59 702.783C1797.39 706.546 1881.65 706.47 1895.39 746.498C1900.4 761.163 1917.14 807.393 1915.74 819.466C1910.38 867.457 1856.98 901.173 1919.99 952.533V993.666C1881.94 971.589 1846.6 948.381 1833.85 930.427C1804.5 889.097 1840.74 860.707 1821.08 813.584C1800.88 765.279 1911.91 736.971 1710.82 714.351C1478.44 687.497 1311.71 641.705 1172.93 529.334C1067.26 443.704 1099.54 323.3 1025.09 273.587C965.917 234.065 862.064 288.212 808.049 310.441C669.548 367.057 484.702 440.687 312.539 382.7C198.644 344.278 334.845 302.837 370.118 269.747C435.143 208.856 338.962 158.75 263.888 120.054C179.339 76.457 87.893 45.363 2.34375e-05 6.97898V0.000976562ZM135.082 0.000976562H184.913C297.907 51.95 518.857 147.459 553.852 179.06C610.936 230.615 530.775 298.758 652.336 278.53C808.395 252.574 981.532 71.085 1084.49 176.355L1092.71 184.785C1183.95 286.838 1086.44 413.478 1235.66 526.239C1386.71 640.411 1584.04 683.183 1832.59 662.327C1862.14 659.662 1891.14 656.21 1919.99 653.737V675.186C1909.61 675.026 1897.55 675.105 1883.12 675.421C1721.41 678.711 1622.23 688.087 1468.96 646.717C1312.06 603.003 1178.78 525.964 1143.73 427.043C1121.63 364.667 1131.19 224.187 1050.05 183.531C979.306 148.047 874.261 212.737 822.474 238.26C771.518 263.119 583.674 350.274 516.211 318.283C466.582 294.797 567.3 228.615 498.293 177.571C446.151 139.029 229.245 42.423 157.177 9.99998C149.724 6.66698 142.401 3.33398 135.082 0.000976562ZM280.964 0.000976562H332.475C426.157 42.503 536.7 80.57 637.702 97.825C675.826 104.33 697.988 110.096 733.606 117.584C780.795 127.502 815.019 109.663 852.031 94.02C938.319 56.693 1018.06 34.311 1098.56 94.531C1244.09 203.446 1121.63 383.525 1253.44 496.598C1265.15 506.596 1277.77 515.692 1291.01 525.062C1453.9 638.138 1691.03 672.088 1915.39 593.359C1916.92 592.81 1918.46 592.261 1919.99 591.671V613.748C1812.16 641.035 1717.58 659.619 1577.34 640.88C1426.37 619.237 1292.19 560.505 1221.86 481.543C1125.95 373.803 1212.73 193.957 1081.06 111.663C919.568 16.625 803.1 233.32 680.212 161.534C617.062 124.639 617.062 131.306 543.255 107.585C493.552 91.588 377.639 44.581 280.964 0.000976562ZM464.911 0.000976562H1068.73C1073.68 2.19698 1078.69 4.55098 1083.64 7.05898C1315.82 123.151 1151.6 348.672 1292.47 477.504C1368.31 546.901 1481.78 594.853 1629.76 598.067C1783.59 599.356 1846.04 535.648 1919.99 490.99V529.964C1851.61 571.798 1775.71 620.807 1612.26 611.475C1417.58 597.949 1257.27 507.067 1224.02 399.601C1188.27 283.979 1254.62 88.608 1044.97 16.077C858.3 -43.52 741.9 91.354 464.911 0.000976562ZM1152.02 0.000976562H1184.43C1238.8 48.658 1261.04 106.956 1267.03 170.512C1278.46 291.621 1235.59 440.375 1441.07 517.732C1470.35 528.71 1493.69 533.961 1527.37 539.1C1712 563.566 1761.63 440.727 1919.99 398.972V425.867C1777.52 476.327 1728.87 600.496 1510.64 555.527C1350.46 520.044 1278.46 445.826 1262.57 352.786C1242.7 236.852 1276.51 94.883 1152.02 0.000976562ZM1246.19 0.000976562H1278.26C1299.16 24.897 1313.11 51.597 1318.19 79.79C1335.19 173.807 1292.89 357.139 1405.18 424.221C1432.36 440.492 1457.87 448.177 1495.65 454.098C1598.88 467.349 1693.25 402.735 1778.36 372.82C1825.82 356.156 1873.36 345.101 1919.99 339.064V358.668C1708.1 393.209 1635.13 531.765 1452.86 475.308C1296.16 422.77 1308.43 317.459 1305.51 226.185C1302.72 137.734 1302.16 64.419 1246.19 0.000976562ZM1349.56 0.000976562H1390.12C1432.01 54.147 1408.73 99.038 1405.45 158.594C1401.14 237.908 1399.12 378.782 1611.7 340.593L1620.91 338.946C1736.6 316.325 1804.5 292.094 1919.99 286.644V305.15C1858.45 309.854 1794.32 321.069 1728.66 339.454C1603.9 375.175 1458.85 430.533 1395.49 317.03C1339.87 217.48 1415.29 87.59 1349.56 0.000976562ZM1483.52 0.000976562H1538.1C1579.57 55.361 1527.5 91.668 1540.26 168.004C1550.51 229.48 1621.74 239.556 1718.2 238.301C1794.11 236.459 1858.02 233.285 1919.99 233.635V252.848C1877.96 253.043 1834.32 255.161 1789.16 259.317C1601.59 277.196 1478.64 296.562 1485.68 157.223C1488.4 102.801 1519.76 49.4 1483.52 0.000976562ZM1653.94 0.000976562H1719.05C1725.18 15.408 1726.36 35.053 1729.99 67.164C1738 139.618 1817.46 153.34 1919.99 167.14V192.509C1911.28 191.762 1902.43 191.017 1893.5 190.313C1720.02 176.708 1651.79 172.278 1661.61 64.967C1663.84 36.855 1661.4 16.467 1653.94 0.000976562ZM1849.66 0.000976562H1919.99V89.235C1897.13 73.984 1880.68 53.95 1864.16 22.935C1859.71 14.623 1854.82 7.01698 1849.66 0.000976562ZM1919.99 1063.88V1080H1882.28C1776.55 1022.56 1586.69 921.408 1559.08 865.536C1530.64 807.942 1780.1 790.416 1578.31 732.427C1389.98 681.422 1261.45 640.094 1136.9 541.372C1064.83 484.247 1065.8 448.609 1022.86 390.62C962.506 308.872 877.26 347.807 774.037 385.368C592.462 451.351 407.685 515.222 204.998 429.867C103.019 386.935 116.819 330.162 203.737 285.388C269.536 251.553 302.437 231.124 241.448 181.37C188.048 137.813 92.288 100.411 2.34375e-05 67.79V47.287C121.974 91.275 427.688 203.838 266.751 277.508C202.694 306.837 131.737 340.869 191.543 392.462C251.349 443.982 415.418 453.394 513 439.826C647.25 421.162 754.936 363.256 879.907 326.715C1008.51 290.054 1029.49 345.689 1055.9 405.56C1096.54 497.539 1124.14 533.531 1245.77 602.104C1352.69 662.446 1466.66 694.355 1607.1 723.568C1724.06 747.519 1750.27 760.068 1666.76 817.704C1621.46 850.365 1644.32 856.011 1668.23 891.999C1711.31 956.965 1789.37 990.884 1873.85 1037.89L1919.99 1063.88ZM1759.54 1080H1698.55C1627.94 1040.28 1558.73 1003.86 1479.06 963.714C1448.39 948.303 1348.58 901.799 1341.68 878.593C1331.92 845.817 1403.16 817.35 1442.4 798.964C1515.94 764.027 1444.49 739.053 1387.69 714.196C1234.2 646.64 1113.69 581.284 1011.86 486.676C935.949 416.222 887.783 411.125 763.927 462.016C602.782 528.434 545.063 565.877 337.636 522.905C278.032 510.554 120.024 469.074 86.993 439.981C38.123 397.011 66.914 312.05 114.232 271.352C162.263 230.068 176.198 212.306 105.314 171.611C74.161 153.729 38.264 138.874 2.34375e-05 125.698V106.134C112.282 144.991 234.474 200.543 180.736 250.888C140.731 288.291 96.743 295.895 84.27 349.962C63.218 441.592 195.369 474.21 324.802 503.733C498.713 543.374 613.231 494.91 748.8 439.395C1002.16 335.496 986.761 457.234 1106.93 549.137C1215.53 632.093 1323.77 673.933 1472.3 730.072C1633.73 794.062 1450.63 797.551 1413.34 856.128C1390.19 892.391 1489.79 931.364 1533.01 954.222C1612.12 996.054 1685.59 1037.54 1759.54 1080ZM1594.49 1080H1536.64C1473.34 1049.14 1407.2 1021.54 1328.09 987.7C1275.88 965.396 1166.38 923.172 1158.79 885.767C1148.26 833.7 1334.09 794.062 1274.84 725.405C1264.39 715.609 1248.63 705.492 1235.11 696.788C1184.29 664.444 998.474 550.548 940.268 535.96C751.657 493.774 830.288 656.521 438.839 582.812C362.724 568.502 90.818 506.556 38.543 480.525C15.893 469.232 4.59902 454.372 2.34375e-05 438.022V393.287C3.13602 377.211 8.50502 361.41 12.194 347.532C20.632 316.324 49.207 246.34 31.507 219.991C25.374 210.896 14.423 202.391 2.34375e-05 194.468V168.317C47.737 188.666 81.068 213.014 74.932 241.088C70.193 262.964 48.307 294.603 39.593 320.834C23.632 368.94 -11.287 442.063 69.143 476.563C115.702 496.52 344.536 552.785 406.987 563.996C527.362 585.639 620.13 596.848 725.107 549.215C853.837 487.03 884.857 461.743 1006.42 536.195C1069.78 575.049 1134.8 616.57 1199.63 654.212C1239.36 676.951 1357.78 733.292 1351.72 763.636C1318.96 820.876 1146.52 854.837 1256.65 920.937C1331.09 965.593 1456.27 1010.6 1544.44 1054.24C1561.73 1062.79 1578.38 1071.37 1594.49 1080ZM1423.99 1080H1362.45C1247.86 1034.52 1126.93 994.018 1018.06 944.303C824.43 855.967 1207.57 827.583 1082.26 703.687C1038.69 660.603 951.773 631.944 862.687 644.996C776.819 660.603 734.444 678.048 634.837 664.21C538.926 649.624 409.282 610.34 311.355 587.48C214.537 564.859 143.932 549.334 42.442 533.532C26.205 530.984 12.126 528.122 -0.000976562 524.869V505.852C34.852 520.516 89.355 527.531 160.245 542C315.399 573.641 452.431 618.214 616.995 641.705C726.362 656.562 755.987 634.878 846.308 611.475C941.108 586.93 1011.5 618.375 1075.56 655.034C1318.19 800.18 1005.65 826.6 1031.65 903.295C1041.27 931.603 1198.87 989.589 1245.56 1008.29C1311.5 1034.68 1369.63 1057.03 1423.99 1080ZM1243.89 1080H1180.11C1072.22 1044.32 960.069 1012.48 849.519 975.669C769.852 949.201 725.033 927.483 788.462 872.437C834.744 832.25 965.708 766.936 802.613 746.66C788.05 744.854 775.149 744.113 760.44 743.291C596.851 735.803 607.589 732.274 485.888 677.035C348.232 616.063 171.952 585.202 2.34375e-05 572.544V557.605C10.599 558.86 22.026 560.036 34.432 561.132C225.689 578.232 396.876 625.278 557.745 684.088C707.602 739.092 751.869 703.18 886.674 715.878C1001.47 728.661 991.155 773.947 930.233 817.392C880.327 853.031 773.408 907.175 864.924 947.641C922.493 973.08 1037.93 1007.67 1106.09 1031.38C1151.81 1047.3 1198.1 1063.34 1243.89 1080ZM1042.94 1080H954.832C859.073 1058.24 758.557 1039.06 651.706 1016.68C469.163 978.411 628.149 907.563 545.761 833.896C512.588 804.177 493.207 786.258 464.632 754.852C397.786 683.26 332.332 656.012 194.325 632.804C122.124 620.688 65.168 618.731 2.34375e-05 618.257V603.319C41.819 603.981 82.807 604.495 137.243 611.161C282.923 628.998 389.355 656.167 479.611 725.173C530.707 765.755 546.181 780.338 626.618 804.056C748.8 840.168 585.427 901.25 639.023 965.866C665.092 997.233 794.873 1015.5 854.887 1030.83C920.895 1047.73 983.349 1063.61 1042.94 1080ZM687.952 1080H446.648C371.092 1039.31 382.523 934.344 373.739 883.297C364.193 827.855 360.351 756.229 290.243 713.331C203.602 668.014 102.668 663.618 2.34375e-05 666.912V650.564C37.081 649.464 72.563 648.876 103.786 650.759C282.293 661.54 373.251 714.707 407.056 811.467C413.468 829.858 417.999 848.521 422.738 867.104C435.008 915.644 422.183 1015.97 483.383 1048.63C517.538 1066.86 621.736 1073.84 687.952 1080ZM347.526 1080H316.86C282.712 1019 270.787 948.965 261.937 907.724C252.112 862.042 249.18 797.511 200.182 759.443C146.302 724.975 76.388 719.609 2.34375e-05 723.76V701.73C80.639 696.984 155.707 700.472 214.681 733.017C298.463 779.203 290.52 864.87 299.994 926.344C306.757 965.908 314.977 1028.64 347.526 1080ZM264.023 1080H239.498C221.301 1045.38 206.376 1010.49 190.98 978.686C185.819 968.102 181.087 957.634 176.481 946.969C131.874 841.737 114.173 806.328 2.34375e-05 805.081V774.495C118.425 769.597 161.423 797.432 197.325 910.937C212.798 959.318 237.682 1027.93 264.023 1080ZM185.751 1080H152.856C125.601 1040.56 97.513 1001.31 61.192 964.692C44.744 948.07 30.111 935.912 4.80602 923.171C3.27502 922.428 1.60402 921.718 -0.000976562 921.015V877.14C32.197 884.823 59.385 897.84 80.16 919.915C116.887 961.161 151.881 1026.56 180.735 1072.08L185.751 1080Z" fill="black"/>
</svg>
