<svg width="1440" height="1024" viewBox="0 0 1440 1024" fill="none" xmlns="http://www.w3.org/2000/svg">
<g clip-path="url(#clip0_324_106867)">
<rect width="1440" height="1024" fill="white"/>
<g filter="url(#filter0_d_324_106867)">
<path fill-rule="evenodd" clip-rule="evenodd" d="M341.409 520.522L390.206 528.401C439.003 536.279 536.597 552.036 560.695 397.779C584.792 243.523 535.393 -80.7479 590.988 -162.142C646.584 -243.535 807.176 -82.052 904.77 -66.2949C1002.36 -50.5378 1036.96 -180.507 1054.26 -245.491L1071.56 -310.476L1531.39 753.209L1493.09 769.618C1454.79 786.027 1378.2 818.845 1301.6 851.664C1225.01 884.482 1148.41 917.3 1071.82 950.119C995.222 982.937 918.627 1015.76 842.032 1048.57C765.437 1081.39 688.842 1114.21 650.545 1130.62L612.247 1147.03L341.409 520.522Z" fill="white"/>
</g>
<g filter="url(#filter1_i_324_106867)">
<path fill-rule="evenodd" clip-rule="evenodd" d="M769.546 131.917L729.332 146.607C689.118 161.297 608.689 190.677 528.864 215.218C449.038 239.759 369.815 259.461 297.219 225.937C224.623 192.413 158.655 105.661 83.6489 91.4921C8.64308 77.3228 -75.3999 135.735 -117.421 164.942L-159.443 194.148L-103.061 -258.682L-65.2569 -254.017C-27.4527 -249.352 48.1556 -240.021 123.764 -230.691C199.372 -221.36 274.98 -212.03 350.589 -202.699C426.197 -193.369 501.805 -184.038 577.414 -174.708C653.022 -165.377 728.63 -156.047 766.434 -151.382L804.238 -146.716L769.546 131.917Z" fill="white"/>
</g>
<g filter="url(#filter2_i_324_106867)">
<path fill-rule="evenodd" clip-rule="evenodd" d="M712.428 -316.08L707.395 -251.14C702.362 -186.199 692.295 -56.3185 690.133 69.164C687.97 194.647 693.712 315.731 786.397 388.435C879.082 461.139 1058.71 485.462 1119.78 575.759C1180.85 666.056 1123.36 822.326 1094.61 900.461L1065.87 978.596L1805.55 566.996L1778.97 519.649C1752.38 472.301 1699.22 377.606 1646.05 282.911C1592.89 188.216 1539.72 93.5212 1486.56 -1.17384C1433.39 -95.8689 1380.23 -190.564 1327.06 -285.259C1273.9 -379.954 1220.73 -474.649 1194.15 -521.997L1167.56 -569.344L712.428 -316.08Z" fill="white"/>
</g>
<g filter="url(#filter3_d_324_106867)">
<path fill-rule="evenodd" clip-rule="evenodd" d="M-510.585 -16.7024L-474.114 45.774C-437.643 108.25 -364.701 233.203 -212.043 285.592C-59.3841 337.98 172.991 317.805 291.485 401.292C409.979 484.78 414.593 671.93 487.535 796.883C560.477 921.836 701.747 984.591 772.382 1015.97L843.018 1047.35L344.274 1501.34L296.415 1449.23C248.556 1397.12 152.838 1292.9 57.1201 1188.68C-38.5979 1084.46 -134.316 980.239 -230.034 876.019C-325.752 771.799 -421.47 667.579 -517.189 563.359C-612.907 459.139 -708.625 354.919 -756.484 302.809L-804.343 250.699L-510.585 -16.7024Z" fill="white"/>
</g>
<g filter="url(#filter4_d_324_106867)">
<path fill-rule="evenodd" clip-rule="evenodd" d="M1691.42 627.341L1662.92 583.189C1634.43 539.037 1577.43 450.734 1464.95 417.657C1352.48 384.58 1184.54 406.729 1095.84 349.984C1007.14 293.238 997.692 157.598 940.694 69.2946C883.695 -19.0089 779.148 -59.9754 726.874 -80.4587L674.601 -100.942L1021.67 -446.464L1058.09 -410.202C1094.51 -373.939 1167.36 -301.415 1240.21 -228.89C1313.06 -156.366 1385.91 -83.8414 1458.75 -11.317C1531.6 61.2075 1604.45 133.732 1677.3 206.256C1750.15 278.781 1823 351.305 1859.42 387.568L1895.84 423.83L1691.42 627.341Z" fill="white"/>
</g>
<g filter="url(#filter5_i_324_106867)">
<path fill-rule="evenodd" clip-rule="evenodd" d="M1550.1 741.705L1475.94 719.283C1401.77 696.861 1253.45 652.017 1106.83 615.999C960.212 579.982 815.297 552.792 689.125 622.698C562.954 692.603 455.527 859.605 322.539 894.203C189.552 928.802 31.0045 830.996 -48.2693 782.093L-127.543 733.19L31.924 1559.24L99.2697 1546.36C166.615 1533.47 301.307 1507.7 435.998 1481.93C570.69 1456.16 705.381 1430.39 840.072 1404.62C974.764 1378.84 1109.46 1353.07 1244.15 1327.3C1378.84 1301.53 1513.53 1275.76 1580.88 1262.87L1648.22 1249.99L1550.1 741.705Z" fill="white"/>
</g>
<g filter="url(#filter6_d_324_106867)">
<path fill-rule="evenodd" clip-rule="evenodd" d="M179.905 1102.2L238.137 1103.44C296.369 1104.69 412.833 1107.17 521.888 1050.92C630.944 994.675 732.59 879.703 844.82 848.626C957.051 817.549 1079.87 870.368 1196.33 872.849C1312.79 875.33 1422.91 827.474 1477.96 803.546L1533.02 779.618L1579.37 1147.04L1522.2 1154.19C1465.03 1161.34 1350.68 1175.64 1236.33 1189.93C1121.98 1204.23 1007.64 1218.53 893.29 1232.83C778.943 1247.13 664.596 1261.42 550.249 1275.72C435.901 1290.02 321.554 1304.32 264.381 1311.47L207.207 1318.61L179.905 1102.2Z" fill="white"/>
</g>
</g>
<defs>
<filter id="filter0_d_324_106867" x="281.409" y="-370.476" width="1309.98" height="1577.5" filterUnits="userSpaceOnUse" color-interpolation-filters="sRGB">
<feFlood flood-opacity="0" result="BackgroundImageFix"/>
<feColorMatrix in="SourceAlpha" type="matrix" values="0 0 0 0 0 0 0 0 0 0 0 0 0 0 0 0 0 0 127 0" result="hardAlpha"/>
<feOffset/>
<feGaussianBlur stdDeviation="30"/>
<feColorMatrix type="matrix" values="0 0 0 0 0.239216 0 0 0 0 0.443137 0 0 0 0 0.686275 0 0 0 0.2 0"/>
<feBlend mode="multiply" in2="BackgroundImageFix" result="effect1_dropShadow_324_106867"/>
<feBlend mode="normal" in="SourceGraphic" in2="effect1_dropShadow_324_106867" result="shape"/>
</filter>
<filter id="filter1_i_324_106867" x="-159.443" y="-258.682" width="963.681" height="502.435" filterUnits="userSpaceOnUse" color-interpolation-filters="sRGB">
<feFlood flood-opacity="0" result="BackgroundImageFix"/>
<feBlend mode="normal" in="SourceGraphic" in2="BackgroundImageFix" result="shape"/>
<feColorMatrix in="SourceAlpha" type="matrix" values="0 0 0 0 0 0 0 0 0 0 0 0 0 0 0 0 0 0 127 0" result="hardAlpha"/>
<feOffset/>
<feGaussianBlur stdDeviation="30"/>
<feComposite in2="hardAlpha" operator="arithmetic" k2="-1" k3="1"/>
<feColorMatrix type="matrix" values="0 0 0 0 0.23776 0 0 0 0 0.444641 0 0 0 0 0.6875 0 0 0 0.2 0"/>
<feBlend mode="multiply" in2="shape" result="effect1_innerShadow_324_106867"/>
</filter>
<filter id="filter2_i_324_106867" x="689.798" y="-569.344" width="1115.75" height="1547.94" filterUnits="userSpaceOnUse" color-interpolation-filters="sRGB">
<feFlood flood-opacity="0" result="BackgroundImageFix"/>
<feBlend mode="normal" in="SourceGraphic" in2="BackgroundImageFix" result="shape"/>
<feColorMatrix in="SourceAlpha" type="matrix" values="0 0 0 0 0 0 0 0 0 0 0 0 0 0 0 0 0 0 127 0" result="hardAlpha"/>
<feOffset/>
<feGaussianBlur stdDeviation="30"/>
<feComposite in2="hardAlpha" operator="arithmetic" k2="-1" k3="1"/>
<feColorMatrix type="matrix" values="0 0 0 0 0.23776 0 0 0 0 0.444641 0 0 0 0 0.6875 0 0 0 0.2 0"/>
<feBlend mode="multiply" in2="shape" result="effect1_innerShadow_324_106867"/>
</filter>
<filter id="filter3_d_324_106867" x="-864.343" y="-76.7024" width="1767.36" height="1638.04" filterUnits="userSpaceOnUse" color-interpolation-filters="sRGB">
<feFlood flood-opacity="0" result="BackgroundImageFix"/>
<feColorMatrix in="SourceAlpha" type="matrix" values="0 0 0 0 0 0 0 0 0 0 0 0 0 0 0 0 0 0 127 0" result="hardAlpha"/>
<feOffset/>
<feGaussianBlur stdDeviation="30"/>
<feColorMatrix type="matrix" values="0 0 0 0 0.239216 0 0 0 0 0.443137 0 0 0 0 0.686275 0 0 0 0.2 0"/>
<feBlend mode="multiply" in2="BackgroundImageFix" result="effect1_dropShadow_324_106867"/>
<feBlend mode="normal" in="SourceGraphic" in2="effect1_dropShadow_324_106867" result="shape"/>
</filter>
<filter id="filter4_d_324_106867" x="614.601" y="-506.464" width="1341.24" height="1193.8" filterUnits="userSpaceOnUse" color-interpolation-filters="sRGB">
<feFlood flood-opacity="0" result="BackgroundImageFix"/>
<feColorMatrix in="SourceAlpha" type="matrix" values="0 0 0 0 0 0 0 0 0 0 0 0 0 0 0 0 0 0 127 0" result="hardAlpha"/>
<feOffset/>
<feGaussianBlur stdDeviation="30"/>
<feColorMatrix type="matrix" values="0 0 0 0 0.239216 0 0 0 0 0.443137 0 0 0 0 0.686275 0 0 0 0.2 0"/>
<feBlend mode="multiply" in2="BackgroundImageFix" result="effect1_dropShadow_324_106867"/>
<feBlend mode="normal" in="SourceGraphic" in2="effect1_dropShadow_324_106867" result="shape"/>
</filter>
<filter id="filter5_i_324_106867" x="-127.543" y="579.265" width="1775.76" height="979.977" filterUnits="userSpaceOnUse" color-interpolation-filters="sRGB">
<feFlood flood-opacity="0" result="BackgroundImageFix"/>
<feBlend mode="normal" in="SourceGraphic" in2="BackgroundImageFix" result="shape"/>
<feColorMatrix in="SourceAlpha" type="matrix" values="0 0 0 0 0 0 0 0 0 0 0 0 0 0 0 0 0 0 127 0" result="hardAlpha"/>
<feOffset/>
<feGaussianBlur stdDeviation="30"/>
<feComposite in2="hardAlpha" operator="arithmetic" k2="-1" k3="1"/>
<feColorMatrix type="matrix" values="0 0 0 0 0.23776 0 0 0 0 0.444641 0 0 0 0 0.6875 0 0 0 0.2 0"/>
<feBlend mode="multiply" in2="shape" result="effect1_innerShadow_324_106867"/>
</filter>
<filter id="filter6_d_324_106867" x="119.905" y="719.618" width="1519.47" height="658.996" filterUnits="userSpaceOnUse" color-interpolation-filters="sRGB">
<feFlood flood-opacity="0" result="BackgroundImageFix"/>
<feColorMatrix in="SourceAlpha" type="matrix" values="0 0 0 0 0 0 0 0 0 0 0 0 0 0 0 0 0 0 127 0" result="hardAlpha"/>
<feOffset/>
<feGaussianBlur stdDeviation="30"/>
<feColorMatrix type="matrix" values="0 0 0 0 0.239216 0 0 0 0 0.443137 0 0 0 0 0.686275 0 0 0 0.2 0"/>
<feBlend mode="multiply" in2="BackgroundImageFix" result="effect1_dropShadow_324_106867"/>
<feBlend mode="normal" in="SourceGraphic" in2="effect1_dropShadow_324_106867" result="shape"/>
</filter>
<clipPath id="clip0_324_106867">
<rect width="1440" height="1024" fill="white"/>
</clipPath>
</defs>
</svg>
